<svg width="16" height="16" viewBox="0 0 16 16" fill="none" xmlns="http://www.w3.org/2000/svg">
<path fill-rule="evenodd" clip-rule="evenodd" d="M6.53838 0H9.46162C9.6493 0 9.81276 9.47561e-08 9.9667 0.0229745C10.2666 0.0685482 10.551 0.180071 10.7973 0.348621C11.0436 0.51717 11.2449 0.738068 11.3851 0.993641C11.4577 1.12492 11.5088 1.2718 11.5684 1.44L11.6644 1.71487C11.7307 1.93818 11.8747 2.1336 12.0731 2.26921C12.2715 2.40482 12.5125 2.47262 12.7568 2.46154H15.3514C15.5234 2.46154 15.6884 2.52637 15.81 2.64178C15.9317 2.75719 16 2.91371 16 3.07692C16 3.24013 15.9317 3.39666 15.81 3.51207C15.6884 3.62747 15.5234 3.69231 15.3514 3.69231H0.648649C0.476616 3.69231 0.31163 3.62747 0.189985 3.51207C0.0683395 3.39666 0 3.24013 0 3.07692C0 2.91371 0.0683395 2.75719 0.189985 2.64178C0.31163 2.52637 0.476616 2.46154 0.648649 2.46154H3.32108C3.55209 2.45628 3.77524 2.38094 3.95782 2.24656C4.14039 2.11219 4.27278 1.92585 4.33557 1.71487L4.43243 1.44C4.49124 1.2718 4.54227 1.12492 4.61405 0.993641C4.75433 0.737968 4.95576 0.517007 5.20221 0.348451C5.44866 0.179896 5.73328 0.0684284 6.0333 0.0229745C6.18724 9.47561e-08 6.3507 0 6.53751 0H6.53838ZM5.41232 2.46154C5.47305 2.34871 5.52368 2.23123 5.56368 2.11036L5.65016 1.86421C5.72887 1.64021 5.74703 1.59508 5.76519 1.56226C5.81188 1.47693 5.87899 1.40317 5.96115 1.34689C6.0433 1.2906 6.13821 1.25336 6.23827 1.23815C6.27719 1.23241 6.32822 1.23077 6.5773 1.23077H9.4227C9.67178 1.23077 9.72368 1.23241 9.76173 1.23897C9.86171 1.2541 9.95656 1.29121 10.0387 1.34735C10.1209 1.40348 10.188 1.47708 10.2348 1.56226C10.253 1.59508 10.2711 1.6402 10.3498 1.86503L10.4363 2.11118L10.4701 2.20308C10.5038 2.29251 10.5436 2.37867 10.5877 2.46154H5.41232Z" fill="#939393"/>
<path d="M2.73755 5.08719C2.72608 4.92431 2.64688 4.77242 2.51737 4.66494C2.38786 4.55745 2.21865 4.50318 2.04696 4.51407C1.87527 4.52495 1.71517 4.60009 1.60188 4.72296C1.48859 4.84583 1.43138 5.00636 1.44285 5.16924L1.84415 10.8734C1.91766 11.9253 1.97734 12.7754 2.11744 13.4433C2.26361 14.1366 2.51096 14.7159 3.02296 15.1697C3.53409 15.6242 4.16026 15.8203 4.89971 15.9122C5.61063 16 6.50836 16 7.62058 16H8.3808C9.49215 16 10.3907 16 11.1017 15.9122C11.8403 15.8203 12.4664 15.6242 12.9784 15.1697C13.4896 14.7159 13.7369 14.1358 13.8831 13.4433C14.0232 12.7762 14.082 11.9253 14.1564 10.8734L14.5577 5.16924C14.5691 5.00636 14.5119 4.84583 14.3986 4.72296C14.2853 4.60009 14.1252 4.52495 13.9536 4.51407C13.7819 4.50318 13.6127 4.55745 13.4831 4.66494C13.3536 4.77242 13.2744 4.92431 13.263 5.08719L12.8651 10.7487C12.7873 11.854 12.7319 12.6236 12.6108 13.2021C12.4924 13.7641 12.328 14.0611 12.0919 14.2712C11.855 14.4812 11.5315 14.6175 10.933 14.6913C10.3164 14.7676 9.50339 14.7692 8.33496 14.7692H7.66555C6.49798 14.7692 5.68501 14.7676 5.0675 14.6913C4.46901 14.6175 4.14555 14.4812 3.90858 14.2712C3.67247 14.0611 3.50815 13.7641 3.38966 13.2021C3.26858 12.6236 3.21323 11.854 3.13539 10.7487L2.73755 5.08719Z" fill="#939393"/>
<path d="M5.77497 6.56752C5.94607 6.55125 6.11698 6.60011 6.25013 6.70335C6.38328 6.80659 6.46776 6.95577 6.48502 7.11809L6.91745 11.2207C6.93012 11.3807 6.87636 11.5391 6.76764 11.6621C6.65893 11.7851 6.50386 11.863 6.33551 11.879C6.16716 11.8951 5.99887 11.8481 5.86652 11.7481C5.73417 11.6481 5.64825 11.503 5.62707 11.3437L5.19464 7.24116C5.17749 7.07883 5.22899 6.91669 5.33781 6.79037C5.44663 6.66405 5.60387 6.58389 5.77497 6.56752ZM10.229 6.56752C10.3999 6.5839 10.557 6.66394 10.6658 6.79008C10.7746 6.91621 10.8262 7.07815 10.8093 7.24034L10.3769 11.3429C10.3555 11.5019 10.2695 11.6466 10.1373 11.7464C10.0051 11.8461 9.83713 11.893 9.66906 11.8771C9.50098 11.8612 9.34608 11.7837 9.23729 11.6611C9.12851 11.5385 9.07442 11.3805 9.08653 11.2207L9.51897 7.11809C9.53623 6.95592 9.62059 6.80688 9.75355 6.70366C9.88651 6.60045 10.0581 6.55149 10.229 6.56752Z" fill="#939393"/>
</svg>
