<svg width="18" height="18" viewBox="0 0 18 18" fill="none" xmlns="http://www.w3.org/2000/svg">
<path d="M3.1395 13.2192C2.69638 13.2192 2.40122 12.9178 2.40122 12.4959V11.1022C2.40122 10.6742 2.69638 10.379 3.1395 10.379H4.98656C5.42968 10.379 5.72484 10.6742 5.72484 11.1022V12.4959C5.72484 12.9178 5.42968 13.2192 4.98656 13.2192H3.1395ZM0 7.46597V5.70435H17.8244V7.46597H0ZM2.47128 15.6142H15.3531C16.9867 15.6142 17.8244 14.7813 17.8244 13.1738V5.02542C17.8244 3.41793 16.9867 2.57886 15.3531 2.57886H2.47128C0.845254 2.57886 0 3.41793 0 5.02542V13.1738C0 14.7813 0.845254 15.6142 2.47128 15.6142Z" fill="black"/>
</svg>
