<svg width="16" height="15" viewBox="0 0 16 15" fill="none" xmlns="http://www.w3.org/2000/svg">
<path d="M15.6929 4.84149C15.5562 4.65857 15.3783 4.51036 15.1738 4.40881C14.9692 4.30726 14.7436 4.25521 14.5152 4.25687H13.4392L11.0837 0.325485C10.993 0.188436 10.8526 0.0918956 10.6922 0.0561417C10.5317 0.0203878 10.3636 0.0482025 10.2233 0.133744C10.0829 0.219285 9.98113 0.355896 9.93935 0.514883C9.89757 0.673871 9.91903 0.842863 9.99921 0.986364L11.9649 4.25687H4.03436L6.00005 0.986364C6.04725 0.915109 6.07958 0.835066 6.09512 0.751024C6.11067 0.666982 6.1091 0.580669 6.09051 0.497247C6.07192 0.413826 6.03669 0.335012 5.98694 0.265521C5.93718 0.19603 5.87392 0.137289 5.80094 0.0928148C5.72795 0.0483402 5.64675 0.0190453 5.56218 0.00668284C5.47761 -0.00567963 5.39142 -0.000855576 5.30876 0.0208664C5.22609 0.0425884 5.14866 0.0807616 5.0811 0.133103C5.01353 0.185443 4.95722 0.250876 4.91553 0.325485L2.56009 4.25687H1.48405C1.25598 4.25667 1.03094 4.30908 0.826428 4.41003C0.621919 4.51098 0.443454 4.65775 0.304914 4.83892C0.166374 5.02008 0.0714938 5.23077 0.0276527 5.45458C-0.0161883 5.6784 -0.00780831 5.90931 0.0521411 6.12936L2.13645 13.7549C2.22037 14.0683 2.40534 14.3453 2.6627 14.5429C2.92005 14.7405 3.23541 14.8477 3.55988 14.8479H12.4394C12.7639 14.8477 13.0792 14.7405 13.3366 14.5429C13.5939 14.3453 13.7789 14.0683 13.8628 13.7549L15.9471 6.12936C16.0078 5.90971 16.0164 5.67894 15.9723 5.45538C15.9281 5.23182 15.8325 5.02163 15.6929 4.84149ZM6.94053 10.8233C6.94053 10.9918 6.87358 11.1535 6.75441 11.2726C6.63524 11.3918 6.47361 11.4588 6.30507 11.4588C6.13654 11.4588 5.97491 11.3918 5.85573 11.2726C5.73656 11.1535 5.66961 10.9918 5.66961 10.8233V8.28145C5.66961 8.11291 5.73656 7.95128 5.85573 7.83211C5.97491 7.71294 6.13654 7.64599 6.30507 7.64599C6.47361 7.64599 6.63524 7.71294 6.75441 7.83211C6.87358 7.95128 6.94053 8.11291 6.94053 8.28145V10.8233ZM10.3297 10.8233C10.3297 10.9918 10.2627 11.1535 10.1435 11.2726C10.0244 11.3918 9.86273 11.4588 9.69419 11.4588C9.52566 11.4588 9.36403 11.3918 9.24486 11.2726C9.12568 11.1535 9.05873 10.9918 9.05873 10.8233V8.28145C9.05873 8.11291 9.12568 7.95128 9.24486 7.83211C9.36403 7.71294 9.52566 7.64599 9.69419 7.64599C9.86273 7.64599 10.0244 7.71294 10.1435 7.83211C10.2627 7.95128 10.3297 8.11291 10.3297 8.28145V10.8233Z" fill="white"/>
</svg>
