<svg width="18" height="18" viewBox="0 0 18 18" fill="none" xmlns="http://www.w3.org/2000/svg">
<g clip-path="url(#clip0_936_331)">
<path d="M13.7306 12.4251L11.6355 10.5394C11.567 10.4778 11.5346 10.3854 11.5499 10.2945L11.8808 8.30902C11.8944 8.22697 12.0037 8.20515 12.0497 8.27445C12.6976 9.24892 13.6346 10.0997 15.0065 10.6484C15.4216 10.8145 15.8928 10.6126 16.0589 10.1974C16.2249 9.78217 16.023 9.31102 15.6078 9.14497C14.2118 8.58652 13.4303 7.63987 12.944 6.54402C12.7356 6.07429 12.4664 5.50676 12.0809 5.04369C11.6787 4.56051 11.1125 4.14729 10.3274 4.08177C9.99458 4.05401 9.62543 4.06676 9.25936 4.16166C7.02067 4.72343 5.53849 6.9033 5.06192 9.76267C4.98841 10.2037 5.28638 10.6209 5.72746 10.6945C6.16853 10.768 6.58569 10.47 6.6592 10.0289C6.92398 8.44027 7.5 7.28916 8.22706 6.56727C8.28533 6.50942 8.37976 6.55796 8.37068 6.63956L8.07038 9.34237C8.03678 9.64492 8.15108 9.94515 8.37736 10.1488L12.4668 13.8293C12.5933 13.9432 12.683 14.0922 12.7242 14.2573L13.4906 17.3225C13.6171 17.8286 14.1299 18.1363 14.636 18.0098C15.1421 17.8833 15.4499 17.3704 15.3233 16.8643L14.5571 13.7991C14.4245 13.2691 14.1368 12.7906 13.7306 12.4251Z" fill="black"/>
<path d="M8.855 15.4322C9.22393 15.0632 9.48005 14.5967 9.5933 14.0873L9.86135 12.8809C9.8825 12.7859 9.85078 12.6869 9.77848 12.6218L8.51195 11.4819C8.40958 11.3897 8.24578 11.4421 8.21593 11.5766L7.74905 13.6775C7.7138 13.8362 7.634 13.9814 7.5191 14.0964L5.19073 16.4248C4.82184 16.7936 4.82184 17.3918 5.19073 17.7606C5.55962 18.1295 6.1577 18.1295 6.52659 17.7606L8.855 15.4322Z" fill="black"/>
<path d="M13.5047 1.79923C13.5047 2.79292 12.6992 3.59848 11.7055 3.59848C10.7117 3.59848 9.90625 2.79292 9.90625 1.79923C9.90625 0.805545 10.7117 0 11.7055 0C12.6992 0 13.5047 0.805545 13.5047 1.79923Z" fill="black"/>
<path d="M2.95188 1.79932H8.19563C8.64511 1.79932 9.00946 2.16181 9.00946 2.60898V3.01806C9.00946 3.18229 8.89771 3.32452 8.74096 3.37339C6.19039 4.16842 4.66208 6.691 4.17477 9.61486C4.14913 9.76876 4.02491 9.89588 3.86895 9.89588H2.62635C2.16093 9.89588 1.79029 9.50828 1.81354 9.04583L2.13907 2.56855C2.16073 2.13763 2.51821 1.79932 2.95188 1.79932Z" fill="black"/>
</g>
<defs>
<clipPath id="clip0_936_331">
<rect width="18" height="18" fill="white"/>
</clipPath>
</defs>
</svg>
