<svg width="26" height="23" viewBox="0 0 26 23" fill="none" xmlns="http://www.w3.org/2000/svg">
<path d="M17.8174 9.80273H1.94823C0.88556 9.80273 0 10.5814 0 11.5157C0 12.45 0.88556 13.2287 1.94823 13.2287H17.8529C18.9155 13.2287 19.8011 12.45 19.8011 11.5157C19.7657 10.5502 18.9155 9.80273 17.8174 9.80273Z" fill="black"/>
<path d="M24.0163 0H1.94823C0.88556 0 0 0.778619 0 1.71295C0 2.64729 0.88556 3.42591 1.94823 3.42591H24.0518C25.1144 3.42591 26 2.64729 26 1.71295C25.9646 0.778619 25.1144 0 24.0163 0Z" fill="black"/>
<path d="M24.0163 19.5742H1.94823C0.88556 19.5742 0 20.3528 0 21.2872C0 22.2215 0.88556 23.0001 1.94823 23.0001H24.0518C25.1144 23.0001 26 22.2215 26 21.2872C25.9646 20.3528 25.1144 19.5742 24.0163 19.5742Z" fill="black"/>
</svg>
