<svg width="40" height="40" viewBox="0 0 40 40" fill="none" xmlns="http://www.w3.org/2000/svg">
<g clip-path="url(#clip0_671_394)">
<path d="M24.5923 11.5254H15.4115C14.9014 11.5254 14.3963 11.6258 13.9251 11.821C13.4538 12.0162 13.0256 12.3023 12.6649 12.663C12.3042 13.0237 12.0181 13.4519 11.8229 13.9232C11.6277 14.3944 11.5273 14.8995 11.5273 15.4096V24.5904C11.5273 25.6206 11.9365 26.6085 12.665 27.3369C13.0256 27.6976 13.4538 27.9837 13.9251 28.1789C14.3963 28.3741 14.9014 28.4746 15.4115 28.4746H24.5923C25.6224 28.4746 26.6104 28.0654 27.3388 27.3369C28.0672 26.6085 28.4764 25.6205 28.4764 24.5904V15.4096C28.4764 14.8995 28.376 14.3944 28.1808 13.9232C27.9856 13.4519 27.6995 13.0237 27.3388 12.6631C26.9781 12.3024 26.55 12.0163 26.0787 11.8211C25.6075 11.6259 25.1024 11.5254 24.5923 11.5254ZM20.0019 25.343C18.9451 25.343 17.9121 25.0297 17.0335 24.4426C16.1548 23.8555 15.47 23.021 15.0656 22.0447C14.6612 21.0684 14.5554 19.9941 14.7615 18.9576C14.9677 17.9212 15.4766 16.9691 16.2238 16.2219C16.971 15.4747 17.9231 14.9658 18.9595 14.7596C19.996 14.5535 21.0703 14.6593 22.0466 15.0637C23.0229 15.4681 23.8574 16.1529 24.4445 17.0316C25.0316 17.9102 25.3449 18.9432 25.3449 20C25.3449 20.7017 25.2067 21.3964 24.9382 22.0447C24.6697 22.6929 24.2762 23.282 23.78 23.7781C23.2839 24.2743 22.6948 24.6678 22.0466 24.9363C21.3983 25.2048 20.7036 25.343 20.0019 25.343ZM25.5677 15.7484C25.3163 15.7485 25.0705 15.6739 24.8614 15.5342C24.6524 15.3946 24.4894 15.1961 24.3932 14.9638C24.297 14.7315 24.2718 14.4759 24.3208 14.2293C24.3699 13.9827 24.4909 13.7562 24.6687 13.5784C24.8465 13.4007 25.073 13.2796 25.3196 13.2305C25.5662 13.1815 25.8218 13.2066 26.054 13.3028C26.2863 13.3991 26.4849 13.562 26.6245 13.771C26.7642 13.9801 26.8388 14.2258 26.8388 14.4773C26.8388 14.8144 26.7049 15.1377 26.4665 15.3761C26.2281 15.6145 25.9048 15.7484 25.5677 15.7484Z" fill="url(#paint0_linear_671_394)"/>
<path d="M20.0004 16.5269C19.3135 16.5269 18.642 16.7306 18.0709 17.1122C17.4997 17.4938 17.0546 18.0362 16.7917 18.6708C16.5289 19.3055 16.4601 20.0038 16.5941 20.6775C16.7281 21.3512 17.0589 21.97 17.5446 22.4557C18.0303 22.9415 18.6491 23.2722 19.3228 23.4062C19.9966 23.5402 20.6949 23.4715 21.3295 23.2086C21.9641 22.9457 22.5065 22.5006 22.8881 21.9294C23.2698 21.3583 23.4735 20.6868 23.4735 19.9999C23.4735 19.0788 23.1075 18.1954 22.4562 17.5441C21.8049 16.8928 20.9215 16.5269 20.0004 16.5269Z" fill="url(#paint1_linear_671_394)"/>
<path fill-rule="evenodd" clip-rule="evenodd" d="M0 20C0 8.95435 8.9543 0 20 0C23.8272 0 27.4034 1.07495 30.4429 2.93945C30.1584 3.56763 30 4.26538 30 5C30 7.76147 32.2386 10 35 10C35.7346 10 36.4322 9.84155 37.0604 9.55713C38.925 12.5967 40 16.1729 40 20C40 31.0457 31.0457 40 20 40C8.9543 40 0 31.0457 0 20ZM28.6585 28.6584C29.7841 27.5327 30.4166 26.0061 30.4166 24.4141V15.5859C30.4166 13.9939 29.7841 12.4673 28.6585 11.3416C27.5328 10.2158 26.006 9.5835 24.4141 9.58325H15.5859C13.994 9.5835 12.4672 10.2158 11.3415 11.3416C10.2158 12.4673 9.58334 13.9939 9.58328 15.5859V24.4141C9.58336 26.0061 10.2158 27.5327 11.3415 28.6584C12.4672 29.7842 13.994 30.4165 15.5859 30.4167H24.4141C26.006 30.4165 27.5328 29.7842 28.6585 28.6584Z" fill="url(#paint2_linear_671_394)"/>
<path d="M33.4745 7.88822L33.2505 7.76022C33.1279 7.69622 33.1012 7.60555 33.1705 7.48822L34.4105 5.32822H31.9305C31.7972 5.32822 31.7305 5.26155 31.7305 5.12822V4.86422C31.7305 4.73089 31.7972 4.66422 31.9305 4.66422H34.4105L33.1705 2.50422C33.1012 2.38688 33.1279 2.29888 33.2505 2.24022L33.4745 2.10422C33.5972 2.03488 33.6905 2.05622 33.7545 2.16822L34.9945 4.32022L36.2345 2.16822C36.3092 2.05622 36.4025 2.03488 36.5145 2.10422L36.7465 2.24022C36.8639 2.29355 36.8905 2.38155 36.8265 2.50422L35.5865 4.66422H38.0665C38.1999 4.66422 38.2665 4.73089 38.2665 4.86422V5.12822C38.2665 5.26155 38.1999 5.32822 38.0665 5.32822H35.5865L36.8265 7.48822C36.8852 7.61089 36.8585 7.70155 36.7465 7.76022L36.5145 7.88822C36.3972 7.96822 36.3039 7.94689 36.2345 7.82422L34.9945 5.68022L33.7545 7.82422C33.6905 7.94689 33.5972 7.96822 33.4745 7.88822Z" fill="#B03582"/>
</g>
<defs>
<linearGradient id="paint0_linear_671_394" x1="12.9499" y1="27.0524" x2="27.0547" y2="12.948" gradientUnits="userSpaceOnUse">
<stop stop-color="#FDD91D"/>
<stop offset="0.05" stop-color="#FDD91D"/>
<stop offset="0.497" stop-color="#EC1C24"/>
<stop offset="0.95" stop-color="#A43A94"/>
<stop offset="1" stop-color="#A43A94"/>
</linearGradient>
<linearGradient id="paint1_linear_671_394" x1="17.1103" y1="22.8901" x2="22.8907" y2="17.1098" gradientUnits="userSpaceOnUse">
<stop stop-color="#FDD91D"/>
<stop offset="0.05" stop-color="#FDD91D"/>
<stop offset="0.497" stop-color="#EC1C24"/>
<stop offset="0.95" stop-color="#A43A94"/>
<stop offset="1" stop-color="#A43A94"/>
</linearGradient>
<linearGradient id="paint2_linear_671_394" x1="3.35719" y1="36.6437" x2="36.6444" y2="3.35719" gradientUnits="userSpaceOnUse">
<stop stop-color="#FDD91D"/>
<stop offset="0.05" stop-color="#FDD91D"/>
<stop offset="0.497" stop-color="#EC1C24"/>
<stop offset="0.95" stop-color="#A43A94"/>
<stop offset="1" stop-color="#A43A94"/>
</linearGradient>
<clipPath id="clip0_671_394">
<rect width="40" height="40" fill="white"/>
</clipPath>
</defs>
</svg>
