<svg width="16" height="16" viewBox="0 0 16 16" fill="none" xmlns="http://www.w3.org/2000/svg">
<path d="M15.7183 14.381L12.6434 11.3062C13.5811 10.0838 14.0884 8.58581 14.0865 7.04523C14.0865 5.16316 13.3536 3.39439 12.0229 2.06367C11.3702 1.40738 10.5939 0.887069 9.73879 0.532844C8.8837 0.178619 7.96684 -0.00248157 7.04129 2.56816e-05C5.1597 2.56816e-05 3.39093 0.732943 2.05973 2.06367C-0.686577 4.81045 -0.686577 9.28001 2.05973 12.0268C2.71236 12.6831 3.48869 13.2034 4.34378 13.5576C5.19887 13.9119 6.11574 14.093 7.04129 14.0904C8.60289 14.0904 10.0825 13.5789 11.3027 12.6469L14.3776 15.7222C14.5625 15.9071 14.8052 16 15.0479 16C15.2906 16 15.5334 15.9071 15.7183 15.7222C15.8063 15.6341 15.8762 15.5296 15.9239 15.4145C15.9716 15.2995 15.9961 15.1762 15.9961 15.0516C15.9961 14.9271 15.9716 14.8037 15.9239 14.6887C15.8762 14.5736 15.8063 14.4691 15.7183 14.381ZM3.40088 10.6861C1.39318 8.67841 1.39366 5.41205 3.40088 3.40435C3.87797 2.92486 4.44541 2.54474 5.07036 2.28597C5.69531 2.0272 6.36537 1.89492 7.04177 1.89679C7.7181 1.89494 8.38808 2.02722 9.01295 2.28599C9.63782 2.54476 10.2052 2.92487 10.6822 3.40435C11.1618 3.88137 11.542 4.44878 11.8009 5.07373C12.0597 5.69869 12.1921 6.36879 12.1902 7.04523C12.1902 8.42052 11.6545 9.71331 10.6822 10.6861C9.70985 11.6589 8.41705 12.1937 7.04129 12.1937C5.66648 12.1937 4.37321 11.658 3.40041 10.6861H3.40088Z" fill="#B1B1B1"/>
</svg>
