<svg width="64" height="64" viewBox="0 0 64 64" fill="none" xmlns="http://www.w3.org/2000/svg">
<g clip-path="url(#clip0_956_781)">
<path d="M32 64C49.6731 64 64 49.6731 64 32C64 14.3269 49.6731 0 32 0C14.3269 0 0 14.3269 0 32C0 49.6731 14.3269 64 32 64Z" fill="#FFD54F"/>
<path d="M57.48 2.57057C55.936 2.57057 54.48 3.09057 53.3333 3.98657C52.1475 3.06563 50.6881 2.56725 49.1867 2.57057C45.592 2.57057 42.6667 5.36524 42.6667 8.79991C42.6667 14.1519 50.6 19.9599 52.1867 21.0692C52.5234 21.303 52.9235 21.4283 53.3333 21.4283C53.7432 21.4283 54.1433 21.303 54.48 21.0692C56.0667 19.9572 64 14.1519 64 8.79991C64 5.36524 61.0747 2.57057 57.48 2.57057ZM14.8133 45.2372C13.2693 45.2372 11.8133 45.7572 10.6667 46.6532C9.48088 45.7323 8.0214 45.2339 6.52 45.2372C2.92533 45.2372 0 48.0319 0 51.4666C0 56.8186 7.93333 62.6266 9.52 63.7359C9.85669 63.9697 10.2568 64.0949 10.6667 64.0949C11.0765 64.0949 11.4766 63.9697 11.8133 63.7359C13.4 62.6239 21.3333 56.8186 21.3333 51.4666C21.3333 48.0319 18.408 45.2372 14.8133 45.2372Z" fill="#E53935"/>
<path d="M24.6654 29.9999C24.1349 29.9999 23.6262 29.7892 23.2512 29.4141C22.8761 29.0391 22.6654 28.5304 22.6654 27.9999C22.6347 27.3133 22.3403 26.665 21.8435 26.19C21.3468 25.715 20.686 25.4499 19.9987 25.4499C19.3114 25.4499 18.6506 25.715 18.1539 26.19C17.6571 26.665 17.3627 27.3133 17.332 27.9999C17.332 28.5304 17.1213 29.0391 16.7462 29.4141C16.3712 29.7892 15.8625 29.9999 15.332 29.9999C14.8016 29.9999 14.2929 29.7892 13.9178 29.4141C13.5427 29.0391 13.332 28.5304 13.332 27.9999C13.332 24.3253 16.3214 21.3333 19.9987 21.3333C23.676 21.3333 26.6654 24.3253 26.6654 27.9999C26.6654 28.5304 26.4546 29.0391 26.0796 29.4141C25.7045 29.7892 25.1958 29.9999 24.6654 29.9999ZM48.6654 29.9999C48.1349 29.9999 47.6262 29.7892 47.2512 29.4141C46.8761 29.0391 46.6654 28.5304 46.6654 27.9999C46.6347 27.3133 46.3403 26.665 45.8435 26.19C45.3468 25.715 44.686 25.4499 43.9987 25.4499C43.3114 25.4499 42.6506 25.715 42.1539 26.19C41.6571 26.665 41.3627 27.3133 41.332 27.9999C41.332 28.5304 41.1213 29.0391 40.7462 29.4141C40.3712 29.7892 39.8625 29.9999 39.332 29.9999C38.8016 29.9999 38.2929 29.7892 37.9178 29.4141C37.5427 29.0391 37.332 28.5304 37.332 27.9999C37.332 24.3253 40.3214 21.3333 43.9987 21.3333C47.676 21.3333 50.6654 24.3253 50.6654 27.9999C50.6654 28.5304 50.4547 29.0391 50.0796 29.4141C49.7045 29.7892 49.1958 29.9999 48.6654 29.9999ZM31.9987 47.9999C29.1348 48.0081 26.2977 47.4478 23.6519 46.3515C21.0061 45.2552 18.6042 43.6447 16.5854 41.6133C16.2102 41.2381 15.9994 40.7292 15.9994 40.1986C15.9994 39.668 16.2102 39.1591 16.5854 38.7839C16.9606 38.4087 17.4694 38.1979 18 38.1979C18.5306 38.1979 19.0395 38.4087 19.4147 38.7839C22.7747 42.1493 27.244 43.9999 31.9987 43.9999C36.7534 43.9999 41.2227 42.1493 44.5854 38.7866C44.7711 38.6008 44.9917 38.4534 45.2344 38.3529C45.4771 38.2524 45.7373 38.2006 46 38.2006C46.2628 38.2006 46.5229 38.2524 46.7656 38.3529C47.0084 38.4534 47.2289 38.6008 47.4147 38.7866C47.6005 38.9724 47.7478 39.1929 47.8484 39.4356C47.9489 39.6784 48.0007 39.9385 48.0007 40.2013C48.0007 40.464 47.9489 40.7241 47.8484 40.9669C47.7478 41.2096 47.6005 41.4301 47.4147 41.6159C45.3947 43.6463 42.9922 45.256 40.3461 46.3518C37.6999 47.4476 34.8627 48.0078 31.9987 47.9999Z" fill="#6D4C41"/>
</g>
<defs>
<clipPath id="clip0_956_781">
<rect width="64" height="64" fill="white"/>
</clipPath>
</defs>
</svg>
