<svg width="15" height="13" viewBox="0 0 15 13" fill="none" xmlns="http://www.w3.org/2000/svg">
<path fill-rule="evenodd" clip-rule="evenodd" d="M1.03117 5.31786C5.0577 3.57458 7.74268 2.4253 9.08611 1.87002C12.9219 0.284596 13.7189 0.00919101 14.2384 9.69628e-05C14.3527 -0.00190317 14.6082 0.026236 14.7737 0.159674C14.9134 0.272347 14.9518 0.424552 14.9702 0.531378C14.9886 0.638204 15.0115 0.881556 14.9933 1.0717C14.7855 3.24203 13.8861 8.50883 13.4285 10.9396C13.2349 11.9682 12.8536 12.3131 12.4845 12.3468C11.6825 12.4202 11.0734 11.8201 10.2965 11.314C9.08085 10.5221 8.39409 10.0292 7.21409 9.25647C5.8504 8.36346 6.73442 7.87264 7.51159 7.07051C7.71498 6.86059 11.249 3.66626 11.3174 3.37648C11.326 3.34024 11.3339 3.20515 11.2532 3.13382C11.1724 3.06248 11.0532 3.08688 10.9672 3.10628C10.8453 3.13377 8.90325 4.40932 5.14115 6.93292C4.58991 7.30906 4.09062 7.49233 3.64327 7.48273C3.15011 7.47214 2.20146 7.20563 1.49623 6.97783C0.631245 6.69842 -0.0562297 6.5507 0.00363389 6.07617C0.0348146 5.82901 0.377327 5.57624 1.03117 5.31786Z" fill="white"/>
</svg>
